<svg width="500" height="100" viewBox="0 0 500 100" fill="none" xmlns="http://www.w3.org/2000/svg">
<g clip-path="url(#clip0_13764_2234)">
<g clip-path="url(#clip1_13764_2234)">
<path d="M80.1197 33.9742L80.0922 33.9329C70.1815 17.1884 59.8175 7.86152 49.2405 6.11702C49.2337 6.11702 49.2199 6.11702 49.2131 6.11702C49.0551 6.08954 48.8971 6.06894 48.7392 6.04147C47.8326 5.89724 46.9122 5.81482 45.9919 5.81482C45.8614 5.82169 45.7241 5.81482 45.5936 5.81482C33.7598 5.81482 22.1526 15.2791 11.1018 33.9329L11.0743 33.9742C1.38339 51.2132 -1.45315 65.025 2.61279 75.0937C2.94246 75.9453 3.32707 76.7695 3.78037 77.5593H3.78724C3.84905 77.6692 3.91086 77.7928 3.97954 77.9027C9.89987 88.1568 23.8971 93.4796 45.5798 93.72H45.6279C65.1677 93.5003 78.4644 89.1527 85.2364 80.7942C85.2708 80.753 85.3051 80.7118 85.3394 80.6706C85.3394 80.6706 85.3463 80.6568 85.3532 80.65C85.9782 79.8945 86.5345 79.0978 87.0221 78.253H87.0153C87.0839 78.1362 87.1595 78.0195 87.2213 77.9096C93.1416 67.6555 90.7515 52.8753 80.1197 33.9742ZM83.3202 75.6568C82.8806 76.4123 82.3861 77.1335 81.8367 77.8272C79.3573 80.8079 75.4493 82.9577 70.5798 83.9742C64.6801 85.2036 57.7845 84.7296 51.1705 82.6349C50.9988 82.5799 50.8271 82.525 50.6554 82.4632C71.6306 70.4096 75.6554 49.7434 72.1252 33.7063C71.61 31.3574 70.9301 29.1115 70.1197 26.9687C72.1526 29.7159 74.1787 32.786 76.2048 36.2063C85.9919 53.6101 88.382 66.8794 83.3202 75.65V75.6568ZM22.9631 40.3547C34.6045 32.5044 51.3559 29.3862 68.6293 41.0415C69.6114 55.0456 63.9315 71.117 45.2021 80.2448C32.5853 74.0909 21.507 61.1445 22.9631 40.3547ZM14.996 36.2132C25.1746 19.036 35.4768 10.3272 45.6004 10.3272C46.4727 10.3272 47.3449 10.3959 48.2172 10.5264C52.0359 11.1788 55.8545 13.4865 59.1719 17.2022C63.1897 21.6939 66.2186 27.9027 67.7158 34.6816C67.757 34.8601 67.7914 35.0387 67.8257 35.2173C46.8985 23.0744 26.9878 29.922 14.8655 41.0003C13.0936 42.6211 11.4795 44.3382 10.0304 46.1101C11.3903 42.9783 13.0386 39.6816 14.9892 36.22L14.996 36.2132ZM45.6004 89.2145C25.6348 88.9879 12.9425 84.4275 7.88064 75.65C7.44795 74.9014 7.07707 74.1253 6.75427 73.3148C5.40125 69.6747 5.48366 65.2036 7.0496 60.4645C8.93147 54.7434 12.7914 49.0085 17.915 44.3244C18.0455 44.2008 18.1828 44.084 18.3202 43.9604C18.2653 68.1568 34.1581 81.9755 49.8106 86.9274C52.1045 87.6555 54.3848 88.1912 56.6444 88.5621C53.2515 88.9467 49.5771 89.1665 45.6073 89.2145H45.6004Z" fill="white"/>
<path d="M129.357 29.7159H112.249V20.0593H157.434V29.7159H140.408V77.3533H129.357V29.7159Z" fill="white"/>
<path d="M162.427 20.0593H172.825V40.3615C175.36 37.3327 179.295 34.8808 185.593 34.8808C194.927 34.8808 202.537 39.8739 202.537 54.036V77.367H192.139V54.9357C192.139 47.5662 189.11 43.5552 182.97 43.5552C176.342 43.5552 172.819 47.8959 172.819 55.3409V77.3601H162.42V20.0593H162.427Z" fill="white"/>
<path d="M209 24.1527C209 20.8766 211.459 18.4247 214.811 18.4247C218.162 18.4247 220.621 20.8835 220.621 24.1527C220.621 27.4219 218.087 29.8807 214.811 29.8807C211.534 29.8807 209 27.4219 209 24.1527ZM209.659 35.3615H220.058V77.3533H209.659V35.3615Z" fill="white"/>
<path d="M227.585 35.3615H236.672L237.654 41.6665C239.866 38.0676 243.135 35.3615 249.934 35.3615H252.146V44.8601H247.805C240.518 44.8601 237.984 50.1005 237.984 56.5634V77.3533H227.585V35.3615Z" fill="white"/>
<path d="M253.368 56.3162C253.368 43.3011 261.72 34.8739 273.011 34.8739C279.151 34.8739 283.492 37.3258 286.109 40.9316V20.0593H296.507V77.3601H287.421L286.356 71.22C283.574 74.9014 279.399 77.8478 273.094 77.8478C261.713 77.8478 253.368 69.661 253.368 56.3162ZM286.191 56.481C286.191 48.6239 281.85 43.4659 275.14 43.4659C268.43 43.4659 264.007 48.6239 264.007 56.3986C264.007 64.1733 268.348 69.2489 275.14 69.2489C281.933 69.2489 286.191 64.0909 286.191 56.481Z" fill="white"/>
<path d="M322.949 20.0593H334V67.6967H357.489V77.3533H322.949V20.0593Z" fill="white"/>
<path d="M359.13 56.3986C359.13 43.4659 367.887 34.8739 380.985 34.8739C394.082 34.8739 402.839 43.4659 402.839 56.3986C402.839 69.3313 394.082 77.8478 380.985 77.8478C367.887 77.8478 359.13 69.2558 359.13 56.3986ZM392.201 56.3986C392.201 48.7887 387.86 43.4659 380.985 43.4659C374.11 43.4659 369.769 48.7887 369.769 56.3986C369.769 64.0085 374.11 69.2489 380.985 69.2489C387.86 69.2489 392.201 63.9261 392.201 56.3986Z" fill="white"/>
<path d="M406.692 56.3986C406.692 43.4659 415.449 34.8739 428.547 34.8739C441.644 34.8739 450.401 43.4659 450.401 56.3986C450.401 69.3313 441.644 77.8478 428.547 77.8478C415.449 77.8478 406.692 69.2558 406.692 56.3986ZM439.762 56.3986C439.762 48.7887 435.422 43.4659 428.547 43.4659C421.672 43.4659 417.331 48.7887 417.331 56.3986C417.331 64.0085 421.672 69.2489 428.547 69.2489C435.422 69.2489 439.762 63.9261 439.762 56.3986Z" fill="white"/>
<path d="M456.129 35.3615H465.216L466.198 41.4192C468.979 37.7379 473.238 34.8739 479.543 34.8739C490.923 34.8739 499.185 43.0607 499.185 56.3986C499.185 69.7365 490.916 77.8478 479.625 77.8478C473.402 77.8478 469.144 75.3066 466.527 71.7077V93.7269H456.129V35.3615ZM488.629 56.3986C488.629 48.6239 484.206 43.4659 477.496 43.4659C470.786 43.4659 466.363 48.6239 466.363 56.3162C466.363 64.0085 470.786 69.2489 477.496 69.2489C484.206 69.2489 488.629 64.0909 488.629 56.3986Z" fill="white"/>
</g>
</g>
<defs>
<clipPath id="clip0_13764_2234">
<rect width="500" height="100" fill="white"/>
</clipPath>
<clipPath id="clip1_13764_2234">
<rect width="500" height="91.6667" fill="white" transform="translate(0 3.9375)"/>
</clipPath>
</defs>
</svg>
