<svg width="100" height="100" viewBox="0 0 100 100" fill="none" xmlns="http://www.w3.org/2000/svg">
<g clip-path="url(#clip0_13764_2226)">
<path d="M88.529 32.2751L88.4997 32.2246C77.4329 13.498 65.8668 3.05793 54.0614 1.1104C54.053 1.1104 54.0404 1.1104 54.032 1.1062C53.8558 1.07675 53.6795 1.04731 53.5075 1.02207C52.4918 0.862231 51.472 0.769691 50.4438 0.769691V0.78231C50.297 0.78231 50.1459 0.769691 49.999 0.769691C36.7835 0.769691 23.8283 11.357 11.49 32.233L11.4606 32.2835C0.633052 51.5652 -2.53127 67.0151 2.00538 78.2838C2.37049 79.2386 2.79856 80.164 3.31055 81.0474H3.31895C3.39029 81.1736 3.45744 81.3039 3.53298 81.4343C10.1428 92.905 25.7672 98.8611 49.9738 99.1303H50.0284C71.8429 98.8864 86.6825 94.0239 94.2407 84.669C94.2785 84.6227 94.3205 84.5765 94.3583 84.5302C94.3625 84.5218 94.3709 84.5176 94.3751 84.5092C95.0717 83.6637 95.697 82.7719 96.2426 81.8255H96.2342C96.3097 81.6909 96.3937 81.5689 96.465 81.4385C103.075 69.9679 100.406 53.4286 88.5374 32.2793L88.529 32.2751ZM92.1004 78.9105C91.6136 79.756 91.0597 80.5636 90.4469 81.3418C87.6813 84.6732 83.3209 87.0834 77.882 88.2191C71.2973 89.5946 63.6005 89.0604 56.2185 86.7175C56.0255 86.6544 55.8324 86.5913 55.6394 86.5282C79.057 73.0469 83.5475 49.9206 79.6026 31.9806C79.0235 29.3559 78.2681 26.8363 77.3658 24.4471C79.632 27.5177 81.8982 30.9585 84.1602 34.782C95.0843 54.2531 97.7576 69.1014 92.1046 78.9148L92.1004 78.9105ZM24.7264 39.4132C37.7194 30.6304 56.42 27.1391 75.7039 40.1787C76.7992 55.8473 70.4622 73.8251 49.5541 84.0423C35.47 77.1565 23.1023 62.6699 24.7264 39.409V39.4132ZM15.8335 34.7778C27.1941 15.5633 38.6889 5.81728 49.9948 5.81728C50.9684 5.81728 51.9421 5.89299 52.9157 6.04021C57.1796 6.77211 61.4434 9.3548 65.1491 13.5106C69.6312 18.5372 73.018 25.486 74.6841 33.0658C74.726 33.2635 74.768 33.4612 74.81 33.6631C51.4511 20.0767 29.2253 27.7406 15.6951 40.1367C13.7142 41.9538 11.918 43.8677 10.3023 45.8489C11.8215 42.345 13.6638 38.656 15.8377 34.782L15.8335 34.7778ZM49.999 94.0828C27.7144 93.8304 13.5463 88.7239 7.89337 78.9105C7.41074 78.0777 6.99527 77.2028 6.63855 76.2942C5.12773 72.2225 5.22426 67.217 6.96589 61.9128C9.06845 55.5108 13.3785 49.0961 19.0944 43.8593C19.2455 43.7247 19.3966 43.5859 19.5476 43.4512C19.4889 70.5189 37.2242 85.9814 54.6993 91.5253C57.2551 92.3371 59.8109 92.9386 62.3247 93.3509C58.5393 93.7841 54.4349 94.0281 50.0032 94.0786L49.999 94.0828Z" fill="#1F1F1F"/>
</g>
<defs>
<clipPath id="clip0_13764_2226">
<rect width="100" height="98.3606" fill="white" transform="matrix(1 0 0 -1 0 99.1303)"/>
</clipPath>
</defs>
</svg>
